<svg width="321" height="183" viewBox="0 0 321 183" fill="none" xmlns="http://www.w3.org/2000/svg">
<path d="M87.1824 6.51973L87.1819 6.53057V6.54142V131.878V131.888L87.1823 131.897C87.277 134.348 87.6978 136.152 88.7426 137.657C89.7778 139.148 91.3838 140.283 93.7086 141.49L93.7292 141.503L93.8467 141.578L94.3059 141.872L96.0556 142.992C97.5668 143.959 99.734 145.346 102.359 147.025C107.608 150.384 114.687 154.912 122.005 159.591C136.64 168.947 152.235 178.906 156.064 181.309L156.074 181.315C157.215 181.995 158.194 182.346 159.255 182.333C160.301 182.321 161.363 181.955 162.665 181.337L162.747 181.298L162.81 181.233C168.109 175.755 176.267 167.698 185.182 158.894C191.927 152.233 199.105 145.144 205.807 138.419C213.581 130.619 220.711 123.312 225.765 117.747C228.29 114.966 230.305 112.61 231.625 110.841C232.282 109.959 232.781 109.204 233.081 108.606C233.23 108.308 233.343 108.025 233.395 107.77C233.434 107.574 233.45 107.335 233.363 107.111V7.63877V7.62771L233.362 7.61665C233.29 5.97866 233.089 4.64387 232.326 3.42902C231.567 2.22001 230.293 1.19332 228.219 0.0611399L228.107 0H227.98H159.03H93.9323H93.9087L93.8851 0.00223005C91.4022 0.23771 89.7248 0.73876 88.668 1.81582C87.6043 2.89984 87.2717 4.46204 87.1824 6.51973Z" fill="#00B682"/>
<path d="M115.573 106.733L110.626 117.101L110.468 117.445C110.025 118.414 109.704 119.434 109.512 120.483C109.43 120.932 109.389 121.388 109.389 121.845V121.948C109.389 122.6 109.633 123.228 110.073 123.71L110.304 123.962C110.514 124.192 110.785 124.357 111.085 124.439C111.869 124.654 112.69 124.7 113.493 124.574L115.16 124.314L117.222 123.863L197.055 104.365C197.37 104.288 197.35 103.834 197.031 103.778L142.782 94.1106L136.598 93.6599H130.826L128.637 93.8992C127.351 94.0398 126.082 94.3049 124.847 94.6907L124.623 94.7606C124.092 94.9265 123.601 95.2015 123.183 95.5679L122.605 96.0735C122.04 96.567 121.524 97.1123 121.061 97.7023L120.391 98.5569C119.654 99.498 118.994 100.498 118.419 101.546L115.573 106.733Z" fill="#006246"/>
<path d="M157.688 19.5017L127.344 82.4469C127.648 83.0046 127.98 82.9987 128.907 82.4469L134.536 77.8822L146.079 67.5139L158.447 57.1456L167.517 49.0312L169.257 47.5511C170.558 46.4452 171.625 45.0919 172.399 43.57C172.984 42.4186 173.289 41.1454 173.289 39.8539V39.5386C173.289 38.3675 173.036 37.2101 172.549 36.145L172.052 35.0565L169.578 30.5486L162.562 19.2426C162.054 18.4241 161.159 17.9263 160.196 17.9263C159.127 17.9263 158.152 18.5385 157.688 19.5017Z" fill="#006246"/>
<path d="M193.902 67.965L181.468 48.845C181.095 48.272 180.27 48.2334 179.846 48.7691L175.35 54.4411L171.64 59.3999L166.693 65.711L162.264 71.2456C161.387 72.341 160.846 73.6663 160.704 75.0621C160.577 76.3138 160.819 77.5753 161.402 78.6903L161.833 79.5153C162.049 79.9286 162.303 80.3211 162.59 80.6881L163.44 81.7726C164.228 82.7779 165.185 83.6383 166.269 84.3151L166.968 84.7522C167.333 84.9804 167.719 85.1744 168.12 85.3318L183.595 91.4064L200.498 99.07L205.033 100.873L207.264 101.686C208.23 102.038 209.276 102.109 210.281 101.889C210.615 101.816 210.905 101.609 211.083 101.317L211.198 101.129C211.48 100.667 211.629 100.136 211.629 99.594V99.181C211.629 98.8071 211.595 98.4343 211.528 98.0668L211.515 97.9979C211.318 96.9186 210.924 95.8848 210.353 94.948L193.902 67.965Z" fill="#006246"/>
<path d="M118.909 107.036L114.651 114.61L114.491 114.908C114.127 115.583 113.864 116.308 113.708 117.058C113.639 117.393 113.607 117.735 113.612 118.077L113.613 118.151C113.621 118.606 113.821 119.036 114.166 119.333L114.425 119.557C114.628 119.733 114.873 119.853 115.137 119.907L115.172 119.914C115.852 120.054 116.551 120.074 117.239 119.974L118.749 119.754L120.568 119.396L189.996 104.732C190.314 104.665 190.315 104.212 189.997 104.145L188.335 103.793L142.845 97.4872L137.367 97.2573L132.258 97.347L130.217 97.5655C129.15 97.6797 128.095 97.8795 127.06 98.1629L126.794 98.2357C126.316 98.3666 125.866 98.5852 125.468 98.8803L125.165 99.105C124.568 99.547 124.013 100.044 123.507 100.589L123.415 100.688C122.55 101.62 121.767 102.626 121.075 103.694L118.909 107.036Z" fill="#004B36"/>
<path d="M142.8 97.9858L188.248 104.286L188.967 104.438L120.471 118.906H120.468L118.664 119.261L117.167 119.479C116.536 119.571 115.895 119.553 115.272 119.424H115.27L115.237 119.417C115.236 119.417 115.236 119.417 115.236 119.417C115.055 119.38 114.889 119.298 114.752 119.179L114.493 118.955L114.492 118.954C114.256 118.751 114.118 118.457 114.113 118.143C114.113 118.143 114.113 118.143 114.113 118.142L114.112 118.07C114.107 117.764 114.136 117.458 114.197 117.159C114.344 116.456 114.59 115.777 114.931 115.145L115.089 114.851L119.337 107.295L121.494 103.966C122.171 102.922 122.936 101.939 123.781 101.028L123.873 100.93V100.929C124.358 100.407 124.89 99.93 125.462 99.506L125.765 99.282C126.113 99.024 126.507 98.8326 126.926 98.718L127.192 98.6452C128.201 98.3688 129.23 98.174 130.27 98.0627L130.217 97.5656L130.27 98.0627L132.289 97.8466L137.36 97.7575L142.8 97.9858Z" stroke="black" stroke-opacity="0.1"/>
<path d="M158.56 22.0895L131.527 77.6118C130.644 79.0973 132.16 78.2057 132.346 78.0483L135.798 74.5379L145.393 65.7035L156.1 56.8106L163.589 50.0824L167.041 46.7476L168.924 44.8168C169.228 44.5054 169.503 44.1673 169.747 43.8065C170.604 42.5352 170.964 40.9897 170.758 39.4626L170.493 37.4944L168.439 32.5466L162.321 21.9766C161.971 21.3717 161.35 20.9737 160.656 20.9103C159.778 20.8299 158.945 21.2985 158.56 22.0895Z" fill="#004B36"/>
<path d="M159.009 22.3083V22.3084L132.092 77.5934L135.441 74.1873L135.45 74.1785L135.459 74.1701L145.054 65.3357L145.063 65.327L145.073 65.3189L155.773 56.4322L163.248 49.7165L166.688 46.3931L168.566 44.4677V44.4675C168.849 44.1779 169.105 43.8632 169.332 43.527L159.009 22.3083ZM159.009 22.3083C159.303 21.7048 159.938 21.3467 160.61 21.4082C161.142 21.4568 161.619 21.7619 161.888 22.227V22.2271L167.989 32.7686L170.006 37.6258L170.262 39.5293V39.5294L159.009 22.3083ZM159.009 22.3083L170.262 39.5294L159.009 22.3083ZM170.262 39.5294C170.452 40.9354 170.12 42.3573 169.332 43.5264L170.262 39.5294Z" stroke="black" stroke-opacity="0.1"/>
<path d="M191.558 69.1213L181.755 52.5822C181.388 51.9626 180.506 51.9227 180.084 52.5065L176.679 57.2205L173.703 61.5841L169.735 67.1378L166.23 71.9446C165.494 72.9527 165.045 74.1408 164.93 75.3832C164.829 76.4775 165.025 77.5789 165.498 78.5711L165.828 79.2654C166.008 79.6424 166.22 80.0029 166.463 80.3427L166.953 81.0288C167.7 82.0741 168.624 82.9805 169.684 83.7069L169.747 83.7503C170.179 84.0463 170.642 84.2929 171.129 84.4855L183.706 89.4638L196.901 95.3881L200.604 97.2731L203.364 98.4176L204.219 98.6492C204.71 98.782 205.229 98.5754 205.495 98.1419C205.678 97.842 205.776 97.4972 205.776 97.1455V96.5589C205.776 96.2511 205.75 95.9439 205.699 95.6404L205.686 95.5578C205.526 94.6017 205.204 93.68 204.733 92.8327L191.558 69.1213Z" fill="#004B36"/>
<path d="M181.325 52.8371L181.324 52.837C181.141 52.5276 180.7 52.5071 180.489 52.7994L177.088 57.5078L174.116 61.8658L174.11 61.8748H174.109L170.141 67.4285L170.139 67.4324L166.634 72.2392L166.633 72.2394C165.951 73.1746 165.534 74.2767 165.428 75.4292L181.325 52.8371ZM181.325 52.8371L191.124 69.3702L204.296 93.0756C204.738 93.8722 205.041 94.7388 205.192 95.6379C205.192 95.6387 205.192 95.6395 205.193 95.6403L205.205 95.7181L205.206 95.7233C205.252 95.9998 205.276 96.2793 205.276 96.5589V97.1455C205.276 97.4041 205.204 97.6586 205.068 97.8808C204.918 98.1252 204.626 98.2413 204.349 98.1666C204.349 98.1666 204.349 98.1666 204.349 98.1665L203.525 97.9434L200.813 96.8187L197.127 94.9425L197.117 94.937L197.105 94.932L183.91 89.0077L183.9 89.003L183.89 88.9989L171.313 84.0206V84.0205C170.861 83.8419 170.431 83.6132 170.03 83.3384C170.03 83.3382 170.03 83.338 170.029 83.3378L169.967 83.2952L169.966 83.2945C168.955 82.6011 168.073 81.736 167.36 80.7382L167.359 80.7381L166.87 80.0521L166.869 80.0519C166.644 79.7363 166.447 79.4012 166.279 79.0502C166.279 79.0501 166.279 79.0501 166.279 79.05L165.949 78.3565V78.3559L181.325 52.8371ZM181.325 52.8371L165.949 78.3559L181.325 52.8371ZM165.949 78.3559C165.515 77.4451 165.335 76.434 165.428 75.4293L165.949 78.3559Z" stroke="black" stroke-opacity="0.1"/>
<path d="M266.044 136.751L303.091 100.298L266.044 63.6113L275.107 54.7969L320.609 100.298L275.107 145.8L266.044 136.751Z" fill="#00B682"/>
<path d="M54.565 136.751L17.5178 100.299L54.565 63.6113L45.5015 54.7969L0 100.299L45.5015 145.8L54.565 136.751Z" fill="#00B682"/>
</svg>
